<svg width="204" height="409" viewBox="0 0 204 409" fill="none" xmlns="http://www.w3.org/2000/svg">
<g opacity="0.5">
<mask id="path-1-inside-1_242_31" fill="white">
<path d="M102 0C154.273 0 197.361 39.3221 203.3 90H204L204 409L0 409L0 90H0.700195C6.63942 39.3221 49.7268 0 102 0Z"/>
</mask>
<path d="M203.3 90L192.375 91.2804L193.514 101H203.3V90ZM204 90H215L215 79H204L204 90ZM204 409V420H215V409H204ZM0 409H-11L-11 420H0L0 409ZM0 90L0 79H-11L-11 90H0ZM0.700195 90L0.700195 101H10.4863L11.6254 91.2804L0.700195 90ZM102 0V11C148.628 11 187.077 46.079 192.375 91.2804L203.3 90L214.225 88.7196C207.644 32.5652 159.919 -11 102 -11V0ZM203.3 90V101H204V90L204 79H203.3L203.3 90ZM204 90H193L193 409H204H215L215 90H204ZM204 409V398L0 398L0 409L0 420L204 420V409ZM0 409H11L11 90H0H-11L-11 409H0ZM0 90L0 101H0.700195L0.700195 90L0.700195 79H0L0 90ZM0.700195 90L11.6254 91.2804C16.9228 46.079 55.3722 11 102 11V0V-11C44.0814 -11 -3.64398 32.5652 -10.225 88.7196L0.700195 90Z" fill="#FC8019" mask="url(#path-1-inside-1_242_31)"/>
</g>
</svg>
