<svg width="106" height="34" viewBox="0 0 106 34" fill="none" xmlns="http://www.w3.org/2000/svg">
<path fill-rule="evenodd" clip-rule="evenodd" d="M0 10.419C0 6.13954 5.35289 5.19684 7.80629 8.70326C10.2648 12.2169 11.7134 16.4917 11.7301 21.1045C11.7301 16.5322 13.1371 12.2892 15.5409 8.78611C17.8898 5.36305 23.0647 6.26758 23.0647 10.419V15.9107C23.0647 22.2798 17.9015 27.443 11.5324 27.443C5.16321 27.443 0 22.2798 0 15.9106V10.419Z" fill="white"/>
<path d="M46.7016 11.712V7.4H34.8016V27H39.2816V19.804H46.5616V15.492H39.2816V11.712H46.7016ZM51.3085 11.768C52.6805 11.768 53.8285 10.62 53.8285 9.248C53.8285 7.876 52.6805 6.728 51.3085 6.728C49.9365 6.728 48.7885 7.876 48.7885 9.248C48.7885 10.62 49.9365 11.768 51.3085 11.768ZM49.2085 27H53.4085V13H49.2085V27ZM64.6859 17.032V13H61.8019V9.08L57.6019 10.34V13H55.3619V17.032H57.6019V21.988C57.6019 25.908 59.1979 27.56 64.6859 27V23.192C62.8379 23.304 61.8019 23.192 61.8019 21.988V17.032H64.6859ZM87.0774 7.4H82.5974L77.2774 16.108L71.9574 7.4H67.4774V27H71.9574V15.604L77.0254 23.92H77.5294L82.5974 15.604V27H87.0774V7.4ZM94.0581 21.68H103.998C104.11 21.148 104.166 20.588 104.166 20C104.166 15.772 101.142 12.608 97.0541 12.608C92.6301 12.608 89.6061 15.828 89.6061 20C89.6061 24.172 92.5741 27.392 97.3621 27.392C100.022 27.392 102.094 26.412 103.466 24.508L100.106 22.576C99.5461 23.192 98.5661 23.64 97.4181 23.64C95.8781 23.64 94.5901 23.136 94.0581 21.68ZM93.9741 18.544C94.3661 17.116 95.4301 16.332 97.0261 16.332C98.2861 16.332 99.5461 16.92 99.9941 18.544H93.9741Z" fill="white"/>
</svg>
